<mxfile modified="2023-10-06T15:36:07.294Z" host="app.diagrams.net" agent="Mozilla/5.0 (Macintosh; Intel Mac OS X 10_15_7) AppleWebKit/537.36 (KHTML, like Gecko) Chrome/116.0.0.0 Safari/537.36" etag="QXryoiDVJ34GJUQHhk0d" version="22.0.3" type="github">
  <diagram id="Ht1M8jgEwFfnCIfOTk4-" name="Page-1">
    <mxGraphModel dx="6725" dy="5769" grid="1" gridSize="10" guides="1" tooltips="1" connect="1" arrows="1" fold="1" page="1" pageScale="1" pageWidth="1169" pageHeight="827" math="0" shadow="0">
      <root>
        <mxCell id="0" />
        <mxCell id="1" parent="0" />
        <mxCell id="JCsPDMlC4gzK-WmuVmDP-42" value="VPC" style="sketch=0;outlineConnect=0;gradientColor=none;html=1;whiteSpace=wrap;fontSize=12;fontStyle=0;shape=mxgraph.aws4.group;grIcon=mxgraph.aws4.group_vpc;strokeColor=#879196;fillColor=none;verticalAlign=top;align=left;spacingLeft=30;fontColor=#879196;dashed=0;movable=0;resizable=0;rotatable=0;deletable=0;editable=0;locked=1;connectable=0;" vertex="1" parent="1">
          <mxGeometry x="-380" y="-1650" width="4380" height="1120" as="geometry" />
        </mxCell>
        <mxCell id="JCsPDMlC4gzK-WmuVmDP-11" value="&lt;font style=&quot;font-size: 30px;&quot;&gt;AWS Secrets Manager&lt;/font&gt;" style="sketch=0;outlineConnect=0;fontColor=#232F3E;gradientColor=none;strokeColor=#ffffff;fillColor=#232F3E;dashed=0;verticalLabelPosition=middle;verticalAlign=bottom;align=center;html=1;whiteSpace=wrap;fontSize=10;fontStyle=1;spacing=3;shape=mxgraph.aws4.productIcon;prIcon=mxgraph.aws4.secrets_manager;" vertex="1" parent="1">
          <mxGeometry x="2330" y="-1610" width="178" height="310" as="geometry" />
        </mxCell>
        <mxCell id="JCsPDMlC4gzK-WmuVmDP-13" style="edgeStyle=orthogonalEdgeStyle;rounded=0;orthogonalLoop=1;jettySize=auto;html=1;exitX=0.5;exitY=1;exitDx=0;exitDy=0;exitPerimeter=0;" edge="1" parent="1">
          <mxGeometry relative="1" as="geometry">
            <mxPoint x="790" y="-1050" as="sourcePoint" />
            <mxPoint x="790" y="-1050" as="targetPoint" />
          </mxGeometry>
        </mxCell>
        <mxCell id="JCsPDMlC4gzK-WmuVmDP-18" value="&lt;font style=&quot;font-size: 30px;&quot;&gt;MS SQL&lt;br&gt;instance&lt;/font&gt;" style="sketch=0;outlineConnect=0;fontColor=#232F3E;gradientColor=none;strokeColor=#232F3E;fillColor=#ffffff;dashed=0;verticalLabelPosition=bottom;verticalAlign=top;align=center;html=1;fontSize=12;fontStyle=0;aspect=fixed;shape=mxgraph.aws4.resourceIcon;resIcon=mxgraph.aws4.ms_sql_instance;" vertex="1" parent="1">
          <mxGeometry x="2790" y="-1450" width="186" height="186" as="geometry" />
        </mxCell>
        <mxCell id="JCsPDMlC4gzK-WmuVmDP-22" value="" style="endArrow=classic;html=1;rounded=0;" edge="1" parent="1">
          <mxGeometry width="50" height="50" relative="1" as="geometry">
            <mxPoint x="10" y="-1430" as="sourcePoint" />
            <mxPoint x="260" y="-1400" as="targetPoint" />
          </mxGeometry>
        </mxCell>
        <mxCell id="JCsPDMlC4gzK-WmuVmDP-23" value="" style="endArrow=classic;html=1;rounded=0;" edge="1" parent="1" source="JCsPDMlC4gzK-WmuVmDP-38">
          <mxGeometry width="50" height="50" relative="1" as="geometry">
            <mxPoint x="179.9993103448279" y="-1230" as="sourcePoint" />
            <mxPoint x="30" y="-1100" as="targetPoint" />
          </mxGeometry>
        </mxCell>
        <mxCell id="JCsPDMlC4gzK-WmuVmDP-33" value="" style="endArrow=classic;html=1;rounded=0;" edge="1" parent="1">
          <mxGeometry width="50" height="50" relative="1" as="geometry">
            <mxPoint x="3530" y="-1360" as="sourcePoint" />
            <mxPoint x="3530" y="-1290" as="targetPoint" />
            <Array as="points">
              <mxPoint x="3530" y="-1300" />
            </Array>
          </mxGeometry>
        </mxCell>
        <mxCell id="JCsPDMlC4gzK-WmuVmDP-34" value="" style="verticalLabelPosition=bottom;html=1;verticalAlign=top;align=center;strokeColor=none;fillColor=#00BEF2;shape=mxgraph.azure.github_code;pointerEvents=1;" vertex="1" parent="1">
          <mxGeometry x="-584" y="-1520" width="180" height="190" as="geometry" />
        </mxCell>
        <mxCell id="JCsPDMlC4gzK-WmuVmDP-36" value="&lt;font style=&quot;font-size: 30px;&quot;&gt;AWS CodePipeline&lt;/font&gt;" style="sketch=0;outlineConnect=0;fontColor=#232F3E;gradientColor=none;strokeColor=#ffffff;fillColor=#232F3E;dashed=0;verticalLabelPosition=middle;verticalAlign=bottom;align=center;html=1;whiteSpace=wrap;fontSize=10;fontStyle=1;spacing=3;shape=mxgraph.aws4.productIcon;prIcon=mxgraph.aws4.codepipeline;" vertex="1" parent="1">
          <mxGeometry x="-180" y="-1520" width="180" height="270" as="geometry" />
        </mxCell>
        <mxCell id="JCsPDMlC4gzK-WmuVmDP-38" value="&lt;font style=&quot;font-size: 30px;&quot;&gt;AWS CodeBuild&lt;/font&gt;" style="sketch=0;outlineConnect=0;fontColor=#232F3E;gradientColor=none;strokeColor=#ffffff;fillColor=#232F3E;dashed=0;verticalLabelPosition=middle;verticalAlign=bottom;align=center;html=1;whiteSpace=wrap;fontSize=10;fontStyle=1;spacing=3;shape=mxgraph.aws4.productIcon;prIcon=mxgraph.aws4.codebuild;" vertex="1" parent="1">
          <mxGeometry x="280" y="-1520" width="180" height="270" as="geometry" />
        </mxCell>
        <mxCell id="JCsPDMlC4gzK-WmuVmDP-39" value="&lt;font style=&quot;font-size: 30px;&quot;&gt;Amazon S3&lt;/font&gt;" style="sketch=0;outlineConnect=0;fontColor=#232F3E;gradientColor=none;strokeColor=#ffffff;fillColor=#232F3E;dashed=0;verticalLabelPosition=middle;verticalAlign=bottom;align=center;html=1;whiteSpace=wrap;fontSize=10;fontStyle=1;spacing=3;shape=mxgraph.aws4.productIcon;prIcon=mxgraph.aws4.s3;" vertex="1" parent="1">
          <mxGeometry x="-185" y="-1160" width="190" height="240" as="geometry" />
        </mxCell>
        <mxCell id="JCsPDMlC4gzK-WmuVmDP-40" value="" style="endArrow=classic;html=1;rounded=0;exitX=1;exitY=0.5;exitDx=0;exitDy=0;exitPerimeter=0;" edge="1" parent="1" source="JCsPDMlC4gzK-WmuVmDP-34">
          <mxGeometry width="50" height="50" relative="1" as="geometry">
            <mxPoint x="-404" y="-1470" as="sourcePoint" />
            <mxPoint x="-190" y="-1420" as="targetPoint" />
          </mxGeometry>
        </mxCell>
        <mxCell id="JCsPDMlC4gzK-WmuVmDP-43" value="&lt;font style=&quot;font-size: 50px;&quot;&gt;Back End Deployment&lt;/font&gt;" style="text;html=1;strokeColor=none;fillColor=none;align=center;verticalAlign=middle;whiteSpace=wrap;rounded=0;" vertex="1" parent="1">
          <mxGeometry x="-330" y="-830" width="780" height="200" as="geometry" />
        </mxCell>
        <mxCell id="JCsPDMlC4gzK-WmuVmDP-45" value="" style="endArrow=classic;html=1;rounded=0;" edge="1" parent="1">
          <mxGeometry width="50" height="50" relative="1" as="geometry">
            <mxPoint x="20" y="-1040" as="sourcePoint" />
            <mxPoint x="260" y="-1040" as="targetPoint" />
          </mxGeometry>
        </mxCell>
        <mxCell id="JCsPDMlC4gzK-WmuVmDP-46" value="&lt;font style=&quot;font-size: 30px;&quot;&gt;AWS Lambda&lt;/font&gt;" style="sketch=0;outlineConnect=0;fontColor=#232F3E;gradientColor=none;strokeColor=#ffffff;fillColor=#232F3E;dashed=0;verticalLabelPosition=middle;verticalAlign=bottom;align=center;html=1;whiteSpace=wrap;fontSize=10;fontStyle=1;spacing=3;shape=mxgraph.aws4.productIcon;prIcon=mxgraph.aws4.lambda;" vertex="1" parent="1">
          <mxGeometry x="280" y="-1162" width="180" height="270" as="geometry" />
        </mxCell>
        <mxCell id="JCsPDMlC4gzK-WmuVmDP-47" value="" style="verticalLabelPosition=bottom;html=1;verticalAlign=top;align=center;strokeColor=none;fillColor=#00BEF2;shape=mxgraph.azure.github_code;pointerEvents=1;" vertex="1" parent="1">
          <mxGeometry x="1080" y="-1880" width="180" height="190" as="geometry" />
        </mxCell>
        <mxCell id="JCsPDMlC4gzK-WmuVmDP-48" value="" style="endArrow=classic;html=1;rounded=0;exitX=0.5;exitY=1;exitDx=0;exitDy=0;exitPerimeter=0;" edge="1" parent="1" source="JCsPDMlC4gzK-WmuVmDP-47">
          <mxGeometry width="50" height="50" relative="1" as="geometry">
            <mxPoint x="1210" y="-1690" as="sourcePoint" />
            <mxPoint x="1170" y="-1540" as="targetPoint" />
          </mxGeometry>
        </mxCell>
        <mxCell id="JCsPDMlC4gzK-WmuVmDP-49" value="&lt;font style=&quot;font-size: 30px;&quot;&gt;AWS CodePipeline&lt;/font&gt;" style="sketch=0;outlineConnect=0;fontColor=#232F3E;gradientColor=none;strokeColor=#ffffff;fillColor=#232F3E;dashed=0;verticalLabelPosition=middle;verticalAlign=bottom;align=center;html=1;whiteSpace=wrap;fontSize=10;fontStyle=1;spacing=3;shape=mxgraph.aws4.productIcon;prIcon=mxgraph.aws4.codepipeline;" vertex="1" parent="1">
          <mxGeometry x="1090" y="-1520" width="180" height="270" as="geometry" />
        </mxCell>
        <mxCell id="JCsPDMlC4gzK-WmuVmDP-50" value="" style="endArrow=classic;html=1;rounded=0;" edge="1" parent="1">
          <mxGeometry width="50" height="50" relative="1" as="geometry">
            <mxPoint x="1280" y="-1440" as="sourcePoint" />
            <mxPoint x="1530" y="-1410" as="targetPoint" />
          </mxGeometry>
        </mxCell>
        <mxCell id="JCsPDMlC4gzK-WmuVmDP-51" value="&lt;font style=&quot;font-size: 30px;&quot;&gt;AWS CodeBuild&lt;/font&gt;" style="sketch=0;outlineConnect=0;fontColor=#232F3E;gradientColor=none;strokeColor=#ffffff;fillColor=#232F3E;dashed=0;verticalLabelPosition=middle;verticalAlign=bottom;align=center;html=1;whiteSpace=wrap;fontSize=10;fontStyle=1;spacing=3;shape=mxgraph.aws4.productIcon;prIcon=mxgraph.aws4.codebuild;" vertex="1" parent="1">
          <mxGeometry x="1540" y="-1520" width="180" height="270" as="geometry" />
        </mxCell>
        <mxCell id="JCsPDMlC4gzK-WmuVmDP-52" value="" style="endArrow=classic;html=1;rounded=0;" edge="1" parent="1">
          <mxGeometry width="50" height="50" relative="1" as="geometry">
            <mxPoint x="1540" y="-1340" as="sourcePoint" />
            <mxPoint x="1290" y="-1130" as="targetPoint" />
          </mxGeometry>
        </mxCell>
        <mxCell id="JCsPDMlC4gzK-WmuVmDP-53" value="&lt;font style=&quot;font-size: 30px;&quot;&gt;Amazon S3&lt;/font&gt;" style="sketch=0;outlineConnect=0;fontColor=#232F3E;gradientColor=none;strokeColor=#ffffff;fillColor=#232F3E;dashed=0;verticalLabelPosition=middle;verticalAlign=bottom;align=center;html=1;whiteSpace=wrap;fontSize=10;fontStyle=1;spacing=3;shape=mxgraph.aws4.productIcon;prIcon=mxgraph.aws4.s3;" vertex="1" parent="1">
          <mxGeometry x="1090" y="-1200" width="190" height="240" as="geometry" />
        </mxCell>
        <mxCell id="JCsPDMlC4gzK-WmuVmDP-56" value="&lt;font style=&quot;font-size: 50px;&quot;&gt;Front End Deployment&lt;/font&gt;" style="text;html=1;strokeColor=none;fillColor=none;align=center;verticalAlign=middle;whiteSpace=wrap;rounded=0;" vertex="1" parent="1">
          <mxGeometry x="1090" y="-840" width="780" height="200" as="geometry" />
        </mxCell>
        <mxCell id="JCsPDMlC4gzK-WmuVmDP-57" value="&lt;font style=&quot;font-size: 30px;&quot;&gt;AWS Lambda&lt;/font&gt;" style="sketch=0;outlineConnect=0;fontColor=#232F3E;gradientColor=none;strokeColor=#ffffff;fillColor=#232F3E;dashed=0;verticalLabelPosition=middle;verticalAlign=bottom;align=center;html=1;whiteSpace=wrap;fontSize=10;fontStyle=1;spacing=3;shape=mxgraph.aws4.productIcon;prIcon=mxgraph.aws4.lambda;" vertex="1" parent="1">
          <mxGeometry x="2338" y="-1190" width="180" height="270" as="geometry" />
        </mxCell>
        <mxCell id="JCsPDMlC4gzK-WmuVmDP-58" value="" style="endArrow=classic;startArrow=classic;html=1;rounded=0;" edge="1" parent="1">
          <mxGeometry width="50" height="50" relative="1" as="geometry">
            <mxPoint x="2540" y="-1140" as="sourcePoint" />
            <mxPoint x="2800" y="-1230" as="targetPoint" />
          </mxGeometry>
        </mxCell>
        <mxCell id="JCsPDMlC4gzK-WmuVmDP-60" value="" style="endArrow=classic;html=1;rounded=0;" edge="1" parent="1">
          <mxGeometry width="50" height="50" relative="1" as="geometry">
            <mxPoint x="2418" y="-1200" as="sourcePoint" />
            <mxPoint x="2418" y="-1300" as="targetPoint" />
          </mxGeometry>
        </mxCell>
        <mxCell id="JCsPDMlC4gzK-WmuVmDP-64" value="&lt;font style=&quot;font-size: 30px;&quot;&gt;Amazon S3&lt;/font&gt;" style="sketch=0;outlineConnect=0;fontColor=#232F3E;gradientColor=none;strokeColor=#ffffff;fillColor=#232F3E;dashed=0;verticalLabelPosition=middle;verticalAlign=bottom;align=center;html=1;whiteSpace=wrap;fontSize=10;fontStyle=1;spacing=3;shape=mxgraph.aws4.productIcon;prIcon=mxgraph.aws4.s3;" vertex="1" parent="1">
          <mxGeometry x="3430" y="-1610" width="190" height="240" as="geometry" />
        </mxCell>
        <mxCell id="JCsPDMlC4gzK-WmuVmDP-65" value="&lt;font style=&quot;font-size: 30px;&quot;&gt;Amazon Cloudfront&lt;/font&gt;" style="sketch=0;outlineConnect=0;fontColor=#232F3E;gradientColor=none;strokeColor=#ffffff;fillColor=#232F3E;dashed=0;verticalLabelPosition=middle;verticalAlign=bottom;align=center;html=1;whiteSpace=wrap;fontSize=10;fontStyle=1;spacing=3;shape=mxgraph.aws4.productIcon;prIcon=mxgraph.aws4.cloudfront;" vertex="1" parent="1">
          <mxGeometry x="3435" y="-1280" width="180" height="260" as="geometry" />
        </mxCell>
        <mxCell id="JCsPDMlC4gzK-WmuVmDP-68" value="" style="endArrow=classic;html=1;rounded=0;" edge="1" parent="1">
          <mxGeometry width="50" height="50" relative="1" as="geometry">
            <mxPoint x="3640" y="-1190" as="sourcePoint" />
            <mxPoint x="3720" y="-1290" as="targetPoint" />
          </mxGeometry>
        </mxCell>
        <mxCell id="JCsPDMlC4gzK-WmuVmDP-69" value="" style="sketch=0;pointerEvents=1;shadow=0;dashed=0;html=1;strokeColor=none;fillColor=#434445;aspect=fixed;labelPosition=center;verticalLabelPosition=bottom;verticalAlign=top;align=center;outlineConnect=0;shape=mxgraph.vvd.web_browser;" vertex="1" parent="1">
          <mxGeometry x="3730" y="-1440" width="195.14" height="138.55" as="geometry" />
        </mxCell>
        <mxCell id="JCsPDMlC4gzK-WmuVmDP-70" value="&lt;font style=&quot;font-size: 30px;&quot;&gt;Browser&lt;/font&gt;" style="text;html=1;strokeColor=none;fillColor=none;align=center;verticalAlign=middle;whiteSpace=wrap;rounded=0;" vertex="1" parent="1">
          <mxGeometry x="3762.57" y="-1294" width="130" height="30" as="geometry" />
        </mxCell>
        <mxCell id="JCsPDMlC4gzK-WmuVmDP-71" value="&lt;font style=&quot;font-size: 50px;&quot;&gt;Back End&lt;/font&gt;" style="text;html=1;strokeColor=none;fillColor=none;align=center;verticalAlign=middle;whiteSpace=wrap;rounded=0;" vertex="1" parent="1">
          <mxGeometry x="2338" y="-870" width="780" height="200" as="geometry" />
        </mxCell>
        <mxCell id="JCsPDMlC4gzK-WmuVmDP-72" value="&lt;font style=&quot;font-size: 50px;&quot;&gt;Front End&lt;/font&gt;" style="text;html=1;strokeColor=none;fillColor=none;align=center;verticalAlign=middle;whiteSpace=wrap;rounded=0;" vertex="1" parent="1">
          <mxGeometry x="3220" y="-870" width="780" height="200" as="geometry" />
        </mxCell>
      </root>
    </mxGraphModel>
  </diagram>
</mxfile>
